<svg width="29" height="29" viewBox="0 0 29 29" fill="none" xmlns="http://www.w3.org/2000/svg">
<path id="Vector" d="M28.4356 10.7025C28.3307 10.3891 28.0592 10.1607 27.7325 10.1105L19.0592 8.78528L15.1731 0.506979C15.0276 0.197501 14.7164 0 14.3747 0C14.033 0 13.7222 0.197501 13.5763 0.506979L9.69021 8.78528L1.0169 10.1109C0.690233 10.1607 0.419109 10.3895 0.313746 10.703C0.208823 11.016 0.287735 11.3616 0.518741 11.5984L6.82027 18.0599L5.33107 27.1873C5.27641 27.5206 5.41704 27.8561 5.69345 28.05C5.84511 28.1572 6.02277 28.2114 6.20087 28.2114C6.34723 28.2114 6.49448 28.1744 6.62762 28.1012L14.3743 23.8165L22.1209 28.1012C22.254 28.1744 22.4013 28.2114 22.5476 28.2114C22.7257 28.2114 22.9038 28.1572 23.0551 28.05C23.3315 27.8561 23.4721 27.5206 23.4174 27.1873L21.9282 18.0599L28.2298 11.5984C28.4612 11.3612 28.5406 11.0155 28.4356 10.7025Z" fill="#E9D41B"/>
</svg>
